<svg version="1" xmlns="http://www.w3.org/2000/svg" width="666.667" height="666.667" viewBox="0 0 500.000000 500.000000"><path d="M231.2 10.8c-14.7 5.8-31.4 25.8-35.2 42.1-1.2 5.2-1 16.5.5 20.6 1.5 4.3-14.2-20.4-17-26.7-1.7-3.7-3.3-6.8-3.7-6.8-.3 0-2.9 2.4-5.7 5.2-5.8 6.1-5.8 5.6-.1 17.3 5.9 12.2 16.1 22.9 34.3 35.8 6.5 4.7 8.1 6.2 5.4 5.1-.8-.3-2.5-.6-3.8-.8-3-.3-7.8-1.5-10.4-2.6-3.8-1.5-9-3.5-9.7-3.6-.5-.1-1-.3-1.3-.4-.3-.1-.9-.4-1.5-.5-.5-.1-1.1-.3-1.2-.4-.3-.2-1.5-.5-6.3-1.5-.5-.1-1.5-.5-2.1-.9-.7-.4-2.7-.9-4.5-1.1-1.9-.3-5.4-.9-7.9-1.5-2.5-.5-6.3-1.1-8.5-1.2-2.2-.2-4.3-.8-4.7-1.4-.5-.6-.8-.6-.8.2s-.9.9-2.7.4c-2.8-.7-22.8-.6-29.3.3-1.9.2-5.4.6-7.7.9-2.3.3-5.1 1-6.2 1.7-1.2.6-2.1.8-2.1.6 0-.3-1.9.2-4.2 1-2.4.9-5.1 1.7-6 1.9-2.4.5-18 8.4-19.9 10.1-.8.8-2.1 1.4-2.7 1.4-.7 0-1.2.4-1.2.8s-1.8 1.9-3.9 3.2c-2.1 1.4-3.7 2.8-3.4 3.2.2.5-.1.8-.7.8-1.9 0-18.9 18.3-19.3 20.7 0 .4-.8 1.6-1.7 2.6-.9.9-2.3 3-3.1 4.5-.8 1.5-1.6 2.9-1.9 3.2-.7.7-6.5 12.2-6.5 12.9-.1.3-1.1 2.8-2.4 5.6-1.2 2.7-2.4 5.4-2.5 6-.1.5-1 3.7-2 7s-2 6.8-2.2 7.7c-.2 1-.6 2.7-.9 3.8-1.1 4.3-1.6 6.6-2.1 10-.3 1.9-.7 4.1-.9 4.7-.6 1.7-1.9 14.2-1.8 17.5 0 1.6-.4 2.8-1.1 2.8-.6 0-.4.5.4 1s1 1 .5 1c-1.1 0-1.2 30.7-.1 40.5 1.2 11.4 2.1 18.1 3.1 23 .4 1.6.8 3.9 1 5 .1 1.1.8 4 1.5 6.5s1.3 5 1.4 5.7c.1.7.5 1.6.9 1.9.4.4.7 1.5.7 2.3 0 3.9 11.5 30.6 14.8 34.3.8 1 1.2 1.8.9 1.8-.8 0 6.5 14.4 7.5 14.8.4.2.6.7.3 1.2s.1 1.4.8 2.2c.7.7 1.4 1.7 1.6 2.3.3 1.3 7.2 13.8 8 14.5.3.3 2 2.5 3.6 5s3.3 4.7 3.6 5c.3.3 3.2 4.1 6.5 8.5 3.2 4.4 6.2 8.1 6.7 8.3.4.2.7.8.7 1.4 0 .6 1.9 3.3 4.3 6.1 2.3 2.9 4.9 6 5.7 7 1.6 2 7.6 7.9 12 11.7 4.4 3.9 14.7 11 15.9 11 .6 0 1.1.4 1.1 1 0 .5.9 1 1.9 1 1.1 0 2.1.4 2.3.8.4 1 10.9 6 14.5 6.8 1.6.4 3.4 1.1 4.1 1.7.6.5 1.2.7 1.2.3 0-.3 1.1-.1 2.5.4 3.7 1.4 7.4 2.1 12.7 2.5 2.5.1 5.1.5 5.6.9 1.5.9 25.9-.2 32.7-1.4 5.8-1.1 9.9-1.8 14-2.4 1.1-.2 2.8-.7 3.7-1 .9-.4 2.2-.9 3-1 7-1.4 8.9-1.9 9.3-2.7.3-.4 1.2-.6 2-.2.8.3 1.5 0 1.5-.6s.3-1 .8-.9c.4.1 2.7-.5 5.2-1.2s4.8-1.3 5.3-1.2c.4.1.7-.2.7-.7 0-.5 1-1.2 2.3-1.6l2.7-.9c.3-.1 1.6-.8 2.8-1.5 1.3-.7 3.5-1.5 4.8-1.7 7.9-1.4 6.1-1.8 20.7 5.2 3.7 1.8 6.7 3 6.7 2.7 0-.3.6 0 1.3.6.8.6 2.2 1.2 3.3 1.4 1 .1 2.4.5 2.9.8 1.1.7 8.5 3.2 10 3.4.6.1 1.2.3 1.5.4 1.3.6 5.8 1.3 9.2 1.4 2.1.1 3.8.5 3.8.9 0 .8 27.3.4 30.5-.5 1.1-.2 4-.8 6.5-1.3 5.1-.9 5.9-1.1 6.3-1.3.1-.2 1.3-.5 2.7-.7 1.4-.2 4.2-1.3 6.2-2.3 2.1-1 3.5-1.4 3.2-.9-.4.5.7.3 2.4-.6 1.6-.8 3.2-1.2 3.6-.9.3.4.6.1.6-.5 0-.7.6-1.2 1.4-1.2 2 0 21.5-10.1 27.3-14.1 2.6-1.9 8.2-6.1 12.3-9.4 11-8.7 31-29.5 31-32.3 0-.6.4-1.2.9-1.2s2.6-2.7 4.7-6c2.2-3.3 4.2-6 4.7-6 .4 0 .7-.5.7-1.1 0-.6 1.3-3 3-5.4 1.6-2.4 3-4.8 3-5.4 0-.6.5-1.1 1-1.1.6 0 1-.5 1-1 0-.6 1.1-2.8 2.5-5s2.2-4 1.8-4c-.5 0-.3-.4.3-.8 1.2-.8 4.4-7.5 4.4-9.1 0-.6.5-1.1 1-1.1.6 0 1-.9 1-2s.4-2 1-2c.5 0 .9-.3.8-.8-.1-.4 1.5-5.2 3.7-10.7 2.2-5.5 4-10.2 4-10.5.1-.3.7-2.3 1.4-4.5 2.9-9.4 5.1-17.9 5.5-21.5.2-1.4.6-3.2.9-4 1-2.8 2.9-14.5 2.9-17.8 0-1.7.3-3.4.7-3.6.3-.2.6-3 .6-6.3 0-3.2.4-6.1 1-6.5.7-.5.7-.8 0-.8-.6 0-1-5.9-.9-15.8 0-8.6-.1-16.1-.4-16.6-.2-.4-.6-3.3-.8-6.3-.3-5.3-.9-9.8-2.1-15.8-.3-1.7-.6-4.2-.6-5.8 0-1.5-.3-2.7-.6-2.7s-.7-1.3-.8-2.8c-.1-1.5-.4-3.9-.7-5.2-.8-3.6-2.5-11.2-3-13.6-.6-2.7-2.7-10.5-3.4-12.4-.3-.8-.6-2-.7-2.6-.8-3.6-5.2-15-8.6-22.1-2.2-4.4-3.9-8.6-3.9-9.2 0-.6-.4-1.1-1-1.1-.5 0-1-.6-1-1.3 0-.8-.9-2.2-2-3.2s-2-2.4-2-3.1c0-.7-.6-1.9-1.3-2.6-.7-.7-2.6-3.1-4.2-5.3-1.6-2.2-5.1-6.2-7.7-8.9-2.6-2.6-4.8-5.2-4.8-5.7s-.4-.9-1-.9c-.5 0-2.7-1.6-4.7-3.6-2.1-1.9-5-4.3-6.5-5.2-1.6-.9-2.8-2-2.8-2.4 0-.4-.7-.8-1.5-.8s-1.5-.4-1.5-.9-.8-1.1-1.7-1.4c-1.8-.6-7.3-3.7-8.3-4.7-1-1-9.7-5-10.9-5-.6 0-1.1-.5-1.1-1 0-.6-.3-.9-.7-.9-.5.1-1.1 0-1.5-.1-.5-.1-1.1-.3-1.5-.5-.5-.1-2.1-.7-3.8-1.4-1.6-.7-4.2-1.5-5.7-1.8-1.6-.3-2.8-.8-2.8-1.2 0-.6-2.6-1.1-6.7-1.4-.7 0-1.3-.3-1.3-.7 0-.4-.6-.7-1.2-.7-1.3-.1-4-.6-10.3-1.7-9.4-1.8-17.6-2.3-31-2.1-8.2.2-16 .6-17.2.8-1.7.4-9.9 1.9-12.3 2.2-.3 0-.9.3-1.5.6-.5.4-1.8.5-2.7.4-1-.2-1.8 0-1.8.4s-2.7 1.3-6 2c-3.3.8-6.3 1.8-6.6 2.2-.3.5-1.2.9-2.1.9-.8 0-3.7 1.1-6.3 2.4-2.7 1.3-5.1 2.2-5.4 1.9-.3-.4-.6-.2-.6.4 0 .6-1.5 1.6-3.2 2.4-1.8.7-4.4 2-5.8 2.9-11.4 7.5-15.9 10.7-18.5 12.9-1.6 1.4-2.4 1.9-1.8 1.1 1.6-2.2 5.1-8.6 9.4-17 8.3-16.7 7.1-28.9-4.9-46.8-5-7.5-11.2-14.3-13-14.1-.4 0-2.6.8-5 1.7z"/></svg>